<?xml version="1.0" encoding="UTF-8" standalone="no"?>
<!-- Generator: Adobe Illustrator 28.2.0, SVG Export Plug-In . SVG Version: 6.00 Build 0)  -->

<svg
   version="1.1"
   id="Layer_1"
   x="0px"
   y="0px"
   viewBox="0 0 1800 1800"
   style="enable-;background-color:transparent;"
   xml:space="preserve"
   sodipodi:docname="ophelix_transparent.svg"
   inkscape:version="1.4.2 (ebf0e940, 2025-05-08)"
   xmlns:inkscape="http://www.inkscape.org/namespaces/inkscape"
   xmlns:sodipodi="http://sodipodi.sourceforge.net/DTD/sodipodi-0.dtd"
   xmlns="http://www.w3.org/2000/svg"
   xmlns:svg="http://www.w3.org/2000/svg"><defs
   id="defs10">
	
	
</defs><sodipodi:namedview
   id="namedview10"
   pagecolor="#ffffff"
   bordercolor="#000000"
   borderopacity="0.25"
   inkscape:showpageshadow="2"
   inkscape:pageopacity="0.0"
   inkscape:pagecheckerboard="true"
   inkscape:deskcolor="#d1d1d1"
   inkscape:zoom="0.29560757"
   inkscape:cx="969.19032"
   inkscape:cy="810.19575"
   inkscape:window-width="1440"
   inkscape:window-height="900"
   inkscape:window-x="0"
   inkscape:window-y="0"
   inkscape:window-maximized="0"
   inkscape:current-layer="Layer_1" />
<style
   type="text/css"
   id="style1">
	.st0{fill:#FFFFFF;}
	.st1{fill:#D4AF37;}
</style>
<g
   id="g9"
   transform="translate(13.531453,20.29718)">
		<path
   class="st1"
   d="m 969.55,834.39 v 6.05 h -42.83 l -0.15,-5.9 4.23,-0.29 c 2.16,-0.15 3.78,-2.15 3.38,-4.28 -0.14,-0.73 -0.42,-1.53 -0.93,-2.41 -2.33,-4.04 -31.82,-44.54 -31.82,-44.54 l -12.99,-0.08 -12.99,0.08 c 0,0 -29.48,40.5 -31.82,44.54 -0.51,0.88 -0.79,1.68 -0.93,2.41 -0.4,2.13 1.21,4.12 3.38,4.28 l 4.23,0.29 -0.15,5.9 h -42.83 v -6.05 c 0.56,0 3.11,-0.34 5.04,-0.61 1.43,-0.2 2.72,-0.98 3.57,-2.16 l 43.07,-60.08 c 0,0 -34.35,-48.74 -38.33,-54.47 -1.47,-2.12 -2.48,-1.86 -2.48,-1.86 l -8.69,-0.15 v -6.52 h 43.76 v 6.98 h -3.87 c -1.48,0 -2.94,0.53 -3.98,1.58 -0.3,0.29 -0.46,0.77 -0.55,1.3 -0.24,1.42 0.15,2.88 0.97,4.06 5.31,7.64 27.92,40.55 27.92,40.55 h 29.39 c 0,0 22.61,-32.92 27.92,-40.55 0.82,-1.18 1.21,-2.64 0.97,-4.06 -0.08,-0.53 -0.25,-1.01 -0.55,-1.3 -1.04,-1.04 -2.5,-1.58 -3.98,-1.58 h -3.87 v -6.98 h 43.76 v 6.52 l -8.69,0.15 c 0,0 -1.01,-0.25 -2.48,1.86 -3.99,5.74 -38.33,54.47 -38.33,54.47 l 43.07,60.08 c 0.85,1.18 2.13,1.96 3.57,2.16 1.9,0.27 4.45,0.61 5.01,0.61 z"
   id="path1" />
		<g
   id="g8">
			<path
   class="st1"
   d="m 600.8,1020.07 c -7.46,0 -14.58,-1.33 -21.36,-3.98 -6.78,-2.65 -12.77,-6.44 -17.97,-11.36 -5.2,-4.92 -9.32,-10.79 -12.38,-17.63 -3.05,-6.84 -4.58,-14.44 -4.58,-22.8 0,-7.68 1.24,-15.06 3.73,-22.12 2.48,-7.06 6.16,-13.37 11.02,-18.9 4.86,-5.54 10.91,-9.94 18.14,-13.22 7.23,-3.28 15.54,-4.92 24.92,-4.92 7.46,0 14.58,1.33 21.36,3.98 6.78,2.66 12.77,6.44 17.97,11.36 5.2,4.92 9.32,10.8 12.38,17.63 3.05,6.84 4.58,14.44 4.58,22.8 0,7.57 -1.25,14.92 -3.73,22.04 -2.49,7.12 -6.16,13.45 -11.02,18.99 -4.86,5.54 -10.91,9.95 -18.14,13.22 -7.23,3.27 -15.54,4.91 -24.92,4.91 z m 2.55,-6.78 c 8.7,0 15.94,-1.84 21.7,-5.51 5.76,-3.67 10.09,-8.82 12.97,-15.43 2.88,-6.61 4.32,-14.33 4.32,-23.14 0,-7.8 -0.91,-15.15 -2.71,-22.04 -1.81,-6.89 -4.49,-12.97 -8.05,-18.23 -3.56,-5.26 -8,-9.35 -13.31,-12.29 -5.31,-2.94 -11.53,-4.41 -18.65,-4.41 -8.48,0 -15.6,1.81 -21.36,5.43 -5.76,3.62 -10.12,8.68 -13.06,15.17 -2.94,6.5 -4.41,14.16 -4.41,22.97 0,7.91 0.87,15.32 2.63,22.21 1.75,6.9 4.41,13 7.97,18.31 3.56,5.31 8,9.47 13.31,12.46 5.31,3 11.53,4.5 18.65,4.5 z"
   id="path2" />
			<path
   class="st1"
   d="m 667.23,1018.54 c -1.47,0 -2.66,-0.14 -3.56,-0.42 -0.91,-0.28 -1.36,-0.76 -1.36,-1.44 0,-1.36 1.87,-2.37 5.6,-3.05 4.29,-0.79 7.43,-2.09 9.41,-3.9 1.98,-1.81 2.97,-4.8 2.97,-8.99 v -71.55 c 0,-5.09 -0.65,-8.99 -1.95,-11.7 -1.3,-2.71 -4.1,-4.46 -8.39,-5.26 -1.92,-0.34 -3.33,-0.79 -4.24,-1.36 -0.91,-0.56 -1.36,-1.24 -1.36,-2.03 0,-0.68 0.45,-1.16 1.36,-1.44 0.9,-0.28 2.09,-0.42 3.56,-0.42 3.05,0 5.34,0 6.87,0 1.53,0 2.97,0.03 4.32,0.08 1.36,0.06 3.16,0.08 5.43,0.08 2.26,0 4.55,-0.08 6.87,-0.25 2.32,-0.17 4.49,-0.34 6.53,-0.51 2.03,-0.17 3.84,-0.25 5.43,-0.25 12.89,0 23.25,2.66 31.11,7.97 7.85,5.31 11.78,12.72 11.78,22.21 0,6.9 -1.36,13.25 -4.07,19.07 -2.71,5.82 -6.87,10.49 -12.46,13.99 -5.59,3.5 -12.74,5.26 -21.45,5.26 -2.49,0 -4.38,-0.37 -5.68,-1.1 -1.3,-0.73 -1.95,-1.44 -1.95,-2.12 0,-0.45 0.31,-0.96 0.93,-1.53 0.62,-0.56 1.21,-0.85 1.78,-0.85 0.56,0 1.44,0.06 2.63,0.17 1.19,0.11 2.91,0.17 5.17,0.17 6.78,0 11.89,-2.82 15.34,-8.48 3.45,-5.65 5.17,-13.45 5.17,-23.4 0,-9.04 -2.66,-15.74 -7.97,-20.09 -5.31,-4.35 -12.1,-6.53 -20.35,-6.53 -3.17,0 -5.76,0.54 -7.8,1.61 -2.03,1.08 -3.05,2.91 -3.05,5.51 v 80.87 c 0,4.07 0.85,7.35 2.54,9.83 1.7,2.49 4.63,4.13 8.82,4.92 1.92,0.34 3.33,0.74 4.24,1.19 0.9,0.45 1.36,1.08 1.36,1.87 0,0.68 -0.45,1.16 -1.36,1.44 -0.91,0.28 -2.09,0.42 -3.56,0.42 -3.05,0 -5.4,-0.11 -7.04,-0.34 -1.64,-0.23 -3.11,-0.42 -4.41,-0.59 -1.3,-0.17 -3.03,-0.25 -5.17,-0.25 -2.83,0 -5.34,0.08 -7.54,0.25 -2.2,0.17 -4.41,0.37 -6.61,0.59 -2.21,0.24 -4.84,0.35 -7.89,0.35 z"
   id="path3" />
			<path
   class="st1"
   d="m 759.02,1018.54 c -1.47,0 -2.66,-0.2 -3.56,-0.59 -0.91,-0.39 -1.36,-0.93 -1.36,-1.61 0,-1.13 1.81,-2.03 5.42,-2.71 4.29,-0.79 7.09,-2.09 8.39,-3.9 1.3,-1.81 1.95,-4.75 1.95,-8.82 v -76.63 c 0,-3.96 -0.42,-6.75 -1.27,-8.39 -0.85,-1.64 -3.42,-2.85 -7.71,-3.65 -3.73,-0.68 -5.59,-1.7 -5.59,-3.05 0,-0.68 0.39,-1.21 1.19,-1.61 0.79,-0.39 2.04,-0.59 3.73,-0.59 3.05,0 5.42,0.06 7.12,0.17 1.7,0.11 3.28,0.2 4.75,0.25 1.47,0.06 3.33,0.08 5.6,0.08 2.37,0 4.32,-0.03 5.85,-0.08 1.53,-0.06 3.16,-0.14 4.92,-0.25 1.75,-0.11 4.15,-0.17 7.21,-0.17 3.28,0 4.92,0.74 4.92,2.2 0,0.79 -0.45,1.42 -1.36,1.87 -0.91,0.45 -2.32,0.85 -4.24,1.19 -4.18,0.79 -7.15,2.18 -8.9,4.15 -1.75,1.98 -2.63,4.61 -2.63,7.88 v 33.4 c 0,0.68 0.28,1.1 0.85,1.27 0.56,0.17 1.07,0.25 1.53,0.25 h 62.9 c 0.79,0 1.19,-0.68 1.19,-2.04 V 924.1 c 0,-3.05 -0.79,-5.59 -2.37,-7.63 -1.58,-2.04 -4.52,-3.45 -8.82,-4.24 -1.92,-0.34 -3.33,-0.73 -4.24,-1.19 -0.91,-0.45 -1.36,-1.07 -1.36,-1.87 0,-1.47 1.64,-2.2 4.92,-2.2 3.05,0 5.57,0.06 7.54,0.17 1.98,0.11 3.87,0.2 5.68,0.25 1.81,0.06 3.96,0.08 6.44,0.08 2.04,0 3.62,-0.03 4.75,-0.08 1.13,-0.06 2.43,-0.14 3.9,-0.25 1.47,-0.11 3.73,-0.17 6.78,-0.17 1.58,0 2.8,0.2 3.65,0.59 0.85,0.4 1.27,0.93 1.27,1.61 0,1.36 -1.87,2.37 -5.59,3.05 -4.18,0.79 -6.73,2.15 -7.63,4.07 -0.91,1.92 -1.36,4.52 -1.36,7.8 v 76.63 c 0,4.18 0.54,7.18 1.61,8.99 1.07,1.81 3.7,3.11 7.88,3.9 3.62,0.68 5.43,1.58 5.43,2.71 0,0.68 -0.45,1.22 -1.36,1.61 -0.91,0.39 -2.09,0.59 -3.56,0.59 -3.05,0 -5.42,-0.08 -7.12,-0.25 -1.7,-0.17 -3.28,-0.31 -4.75,-0.42 -1.47,-0.11 -3.39,-0.17 -5.76,-0.17 -2.37,0 -4.32,0.06 -5.85,0.17 -1.53,0.11 -3.19,0.25 -5,0.42 -1.81,0.17 -4.24,0.25 -7.29,0.25 -1.47,0 -2.66,-0.2 -3.56,-0.59 -0.91,-0.39 -1.36,-0.93 -1.36,-1.61 0,-0.79 0.42,-1.36 1.27,-1.7 0.85,-0.34 2.23,-0.68 4.15,-1.02 3.62,-0.68 6.47,-2 8.56,-3.98 2.09,-1.98 3.14,-4.77 3.14,-8.39 v -33.06 c 0,-0.56 0,-1.13 0,-1.7 0,-0.56 -0.28,-0.85 -0.85,-0.85 H 784.3 c -0.57,0 -0.85,0.62 -0.85,1.87 v 32.21 c 0,3.5 1.3,6.53 3.9,9.07 2.6,2.54 5.82,4.15 9.66,4.83 1.92,0.34 3.31,0.68 4.15,1.02 0.84,0.34 1.27,0.91 1.27,1.7 0,0.68 -0.45,1.22 -1.36,1.61 -0.91,0.39 -2.09,0.59 -3.56,0.59 -3.05,0 -5.57,-0.08 -7.54,-0.25 -1.98,-0.17 -3.87,-0.31 -5.68,-0.42 -1.81,-0.11 -4.01,-0.17 -6.61,-0.17 -2.37,0 -4.38,0.06 -6.02,0.17 -1.64,0.11 -3.39,0.25 -5.26,0.42 -1.87,0.19 -4.33,0.27 -7.38,0.27 z"
   id="path4" />
			<path
   class="st1"
   d="m 893.35,1018.54 c -1.47,0 -2.66,-0.14 -3.56,-0.42 -0.91,-0.28 -1.36,-0.76 -1.36,-1.44 0,-1.36 1.86,-2.37 5.59,-3.05 4.29,-0.79 7.46,-2.09 9.49,-3.9 2.03,-1.81 3.05,-4.75 3.05,-8.82 v -76.29 c 0,-4.07 -0.82,-6.95 -2.46,-8.65 -1.64,-1.7 -4.61,-2.94 -8.9,-3.73 -1.92,-0.34 -3.33,-0.79 -4.24,-1.36 -0.91,-0.56 -1.36,-1.24 -1.36,-2.03 0,-0.68 0.45,-1.16 1.36,-1.44 0.9,-0.28 2.09,-0.42 3.56,-0.42 4.29,0 7.94,0.06 10.94,0.17 2.99,0.11 5.93,0.2 8.82,0.25 2.88,0.06 6.3,0.08 10.26,0.08 3.73,0 7.66,-0.03 11.78,-0.08 4.12,-0.06 7.94,-0.08 11.44,-0.08 3.84,-0.11 7.09,-0.2 9.75,-0.25 2.66,-0.06 4.21,-0.08 4.66,-0.08 0.56,0 1.19,0.11 1.86,0.34 0.68,0.23 1.07,0.62 1.19,1.19 0.56,3.17 1.13,6.3 1.7,9.41 0.56,3.11 0.85,5.79 0.85,8.05 0,1.02 -0.25,1.7 -0.76,2.03 -0.51,0.34 -1.05,0.51 -1.61,0.51 -0.57,0 -0.96,-0.14 -1.19,-0.42 -0.23,-0.28 -0.45,-0.71 -0.68,-1.27 -0.57,-1.92 -1.13,-3.76 -1.7,-5.51 -0.57,-1.75 -1.25,-3.02 -2.04,-3.81 -1.58,-1.81 -3.33,-3.02 -5.26,-3.64 -1.92,-0.62 -3.96,-0.93 -6.1,-0.93 h -22.21 c -0.91,0 -2.15,0.51 -3.73,1.53 -1.58,1.02 -2.37,2.32 -2.37,3.9 v 35.94 c 0,1.02 0.31,1.89 0.93,2.63 0.62,0.74 1.33,1.1 2.12,1.1 h 16.79 c 3.28,0 5.54,-0.59 6.78,-1.78 1.24,-1.19 2.26,-3.36 3.05,-6.53 0.68,-2.48 1.7,-3.73 3.05,-3.73 0.45,0 0.93,0.23 1.44,0.68 0.51,0.45 0.76,1.13 0.76,2.04 0,0.45 -0.03,1.47 -0.08,3.05 -0.06,1.58 -0.14,3.22 -0.25,4.92 -0.11,1.7 -0.17,3 -0.17,3.9 0,1.13 0.03,2.63 0.08,4.49 0.06,1.87 0.11,3.65 0.17,5.34 0.06,1.7 0.08,2.77 0.08,3.22 0,0.79 -0.08,1.47 -0.25,2.03 -0.17,0.57 -0.59,0.85 -1.27,0.85 -1.7,0 -3,-1.81 -3.9,-5.42 -0.68,-2.6 -1.58,-4.52 -2.71,-5.76 -1.13,-1.24 -2.83,-1.87 -5.09,-1.87 H 925.9 c -1.92,0 -3.36,0.25 -4.32,0.76 -0.96,0.51 -1.44,1.72 -1.44,3.65 v 32.55 c 0,4.3 0.9,7.26 2.71,8.9 1.81,1.64 4.63,2.46 8.48,2.46 h 12.55 c 3.62,0 6.64,-0.2 9.07,-0.59 2.43,-0.39 4.55,-1.16 6.36,-2.29 1.81,-1.24 3.42,-2.88 4.83,-4.92 1.41,-2.03 3.02,-4.75 4.83,-8.14 0.34,-0.68 0.73,-1.24 1.19,-1.7 0.45,-0.45 0.96,-0.62 1.53,-0.51 0.56,0.11 1.02,0.37 1.36,0.76 0.34,0.4 0.51,0.93 0.51,1.61 0,1.02 -0.28,2.8 -0.85,5.34 -0.57,2.54 -1.27,5.17 -2.12,7.88 -0.85,2.71 -1.61,4.86 -2.29,6.44 -0.34,0.79 -0.65,1.47 -0.93,2.04 -0.28,0.56 -0.76,0.85 -1.44,0.85 -5.42,0 -10.46,-0.06 -15.09,-0.17 -4.64,-0.11 -9.04,-0.23 -13.22,-0.34 -4.18,-0.11 -8.28,-0.23 -12.29,-0.34 -4.01,-0.11 -8.17,-0.17 -12.46,-0.17 -2.49,0 -4.64,0.08 -6.44,0.25 -1.81,0.17 -3.67,0.34 -5.59,0.51 -1.95,0.15 -4.44,0.23 -7.49,0.23 z"
   id="path5" />
			<path
   class="st1"
   d="m 980.63,1017.95 c -0.85,-0.39 -1.27,-0.87 -1.27,-1.44 0,-1.02 0.53,-1.72 1.61,-2.12 1.07,-0.39 1.78,-0.65 2.12,-0.76 4.41,-0.9 7.8,-2.23 10.17,-3.98 2.37,-1.75 3.56,-4.49 3.56,-8.22 v -78.67 c 0,-2.71 -0.28,-4.72 -0.85,-6.02 -0.57,-1.3 -1.58,-2.26 -3.05,-2.88 -1.47,-0.62 -3.62,-1.16 -6.44,-1.61 -3.73,-0.68 -5.59,-1.81 -5.59,-3.39 0,-0.68 0.45,-1.16 1.36,-1.44 0.9,-0.28 2.09,-0.42 3.56,-0.42 3.05,0 5.51,0.06 7.38,0.17 1.87,0.11 3.65,0.2 5.34,0.25 1.7,0.06 3.79,0.08 6.27,0.08 2.82,0 5.26,-0.03 7.29,-0.08 2.03,-0.06 4.12,-0.14 6.27,-0.25 2.15,-0.11 4.75,-0.17 7.8,-0.17 1.47,0 2.65,0.14 3.56,0.42 0.9,0.28 1.36,0.76 1.36,1.44 0,0.79 -0.45,1.47 -1.36,2.03 -0.91,0.57 -2.32,1.02 -4.24,1.36 -4.18,0.79 -7.74,1.72 -10.68,2.8 -2.94,1.08 -4.41,3.25 -4.41,6.53 v 79.85 c 0,3.5 0.79,6.1 2.37,7.8 1.58,1.7 5.14,2.54 10.68,2.54 h 21.02 c 3.05,0 5.74,-0.48 8.05,-1.44 2.32,-0.96 4.04,-1.95 5.17,-2.97 2.26,-1.92 3.93,-3.64 5,-5.17 1.07,-1.53 2.34,-3.81 3.81,-6.87 0.23,-0.68 0.71,-1.7 1.44,-3.05 0.73,-1.36 1.5,-2.03 2.29,-2.03 0.68,0 1.19,0.34 1.53,1.02 0.34,0.68 0.51,1.36 0.51,2.04 0,0.11 -0.03,0.25 -0.08,0.42 -0.06,0.17 -0.08,0.31 -0.08,0.42 -0.79,2.94 -1.5,5.59 -2.12,7.97 -0.62,2.37 -1.13,4.64 -1.53,6.78 -0.4,2.15 -0.71,4.41 -0.93,6.78 -0.11,0.79 -0.31,1.47 -0.59,2.04 -0.28,0.56 -0.88,0.85 -1.78,0.85 -5.65,0 -11.08,-0.06 -16.28,-0.17 -5.2,-0.11 -10.2,-0.2 -15,-0.25 -4.81,-0.06 -9.41,-0.14 -13.82,-0.25 -4.41,-0.11 -8.76,-0.17 -13.05,-0.17 -2.83,0 -6.02,0.06 -9.58,0.17 -3.56,0.11 -8,0.34 -13.31,0.68 -1.48,-0.03 -2.63,-0.23 -3.48,-0.62 z"
   id="path6" />
			<path
   class="st1"
   d="m 1079.93,1018.54 c -1.47,0 -2.66,-0.14 -3.56,-0.42 -0.91,-0.28 -1.36,-0.76 -1.36,-1.44 0,-1.36 1.86,-2.37 5.59,-3.05 4.29,-0.79 7.57,-2.09 9.83,-3.9 2.26,-1.81 3.39,-4.69 3.39,-8.65 v -76.63 c 0,-3.96 -0.82,-6.78 -2.46,-8.48 -1.64,-1.7 -4.61,-2.94 -8.9,-3.73 -3.73,-0.68 -5.6,-1.81 -5.6,-3.39 0,-0.68 0.45,-1.16 1.36,-1.44 0.9,-0.28 2.09,-0.42 3.56,-0.42 3.05,0 5.57,0.06 7.54,0.17 1.98,0.11 3.87,0.2 5.68,0.25 1.81,0.06 4.01,0.08 6.61,0.08 2.48,0 4.52,-0.03 6.1,-0.08 1.58,-0.06 3.28,-0.14 5.09,-0.25 1.81,-0.11 4.24,-0.17 7.29,-0.17 1.47,0 2.65,0.14 3.56,0.42 0.9,0.28 1.36,0.76 1.36,1.44 0,0.79 -0.45,1.47 -1.36,2.03 -0.91,0.57 -2.32,1.02 -4.24,1.36 -4.18,0.79 -7.23,2.04 -9.16,3.73 -1.92,1.7 -2.88,4.52 -2.88,8.48 v 76.63 c 0,3.96 1.19,6.84 3.56,8.65 2.37,1.81 5.65,3.11 9.83,3.9 1.92,0.34 3.33,0.74 4.24,1.19 0.9,0.45 1.36,1.08 1.36,1.87 0,0.68 -0.45,1.16 -1.36,1.44 -0.91,0.28 -2.09,0.42 -3.56,0.42 -3.05,0 -5.57,-0.08 -7.54,-0.25 -1.98,-0.17 -3.87,-0.31 -5.68,-0.42 -1.81,-0.11 -4.01,-0.17 -6.61,-0.17 -2.83,0 -5.29,0.06 -7.38,0.17 -2.09,0.11 -4.24,0.25 -6.44,0.42 -2.18,0.16 -4.81,0.24 -7.86,0.24 z"
   id="path7" />
			<path
   class="st1"
   d="m 1140.51,1018.54 c -1.47,0 -2.66,-0.14 -3.56,-0.42 -0.9,-0.28 -1.36,-0.76 -1.36,-1.44 0,-0.79 0.48,-1.47 1.44,-2.03 0.96,-0.56 2.34,-1.13 4.15,-1.7 1.92,-0.56 4.32,-1.55 7.21,-2.97 2.88,-1.41 5.85,-3.25 8.9,-5.51 3.05,-2.26 5.76,-4.86 8.14,-7.8 l 21.19,-26.45 c 1.24,-1.58 2.09,-3.14 2.54,-4.66 0.45,-1.53 -0.11,-3.42 -1.7,-5.68 l -22.72,-31.87 c -2.83,-3.96 -5.37,-6.98 -7.63,-9.07 -2.26,-2.09 -4.35,-3.59 -6.27,-4.49 -1.92,-0.9 -3.84,-1.64 -5.76,-2.2 -1.81,-0.56 -3.19,-1.13 -4.15,-1.7 -0.96,-0.56 -1.44,-1.24 -1.44,-2.03 0,-0.68 0.45,-1.16 1.36,-1.44 0.9,-0.28 2.09,-0.42 3.56,-0.42 2.82,0 6.53,0.14 11.1,0.42 4.58,0.28 8.96,0.42 13.14,0.42 3.39,0 6.67,-0.06 9.83,-0.17 3.16,-0.11 5.48,-0.17 6.95,-0.17 1.47,0 2.65,0.14 3.56,0.42 0.9,0.28 1.36,0.76 1.36,1.44 0,0.79 -0.45,1.41 -1.36,1.86 -0.91,0.45 -2.32,0.96 -4.24,1.53 -2.83,0.79 -4.97,1.53 -6.44,2.2 -1.47,0.68 -2.2,1.7 -2.2,3.05 0,1.81 1.87,5.31 5.59,10.51 l 15.43,21.7 c 1.24,1.81 2.17,2.66 2.8,2.54 0.62,-0.11 1.38,-0.79 2.29,-2.03 l 18.14,-23.91 c 1.36,-1.7 2.43,-3.28 3.22,-4.75 0.79,-1.47 1.19,-2.77 1.19,-3.9 0,-1.24 -0.59,-2.31 -1.78,-3.22 -1.19,-0.9 -3.14,-1.58 -5.85,-2.04 -1.13,-0.22 -2.35,-0.65 -3.64,-1.27 -1.3,-0.62 -1.95,-1.33 -1.95,-2.12 0,-0.68 0.45,-1.16 1.36,-1.44 0.9,-0.28 2.09,-0.42 3.56,-0.42 1.36,0 2.77,0 4.24,0 1.47,0 2.99,0.03 4.58,0.08 1.58,0.06 3.22,0.08 4.92,0.08 3.28,0 6.75,-0.17 10.43,-0.51 3.67,-0.34 6.64,-0.51 8.9,-0.51 1.47,0 2.65,0.14 3.56,0.42 0.9,0.28 1.36,0.76 1.36,1.44 0,0.79 -0.45,1.42 -1.36,1.87 -0.91,0.45 -2.32,0.96 -4.24,1.53 -3.17,0.79 -6.7,3.14 -10.6,7.04 -3.9,3.9 -7.71,8.05 -11.44,12.46 l -19.5,23.06 c -1.47,1.81 -2.37,3.08 -2.71,3.81 -0.34,0.74 -0.23,1.72 0.34,2.97 l 26.28,37.81 c 2.6,3.73 5.48,6.84 8.65,9.32 3.16,2.49 6.33,4.18 9.49,5.09 1.92,0.45 3.33,0.93 4.24,1.44 0.9,0.51 1.36,1.16 1.36,1.95 0,0.68 -0.45,1.16 -1.36,1.44 -0.91,0.28 -2.09,0.42 -3.56,0.42 -1.58,0 -3.79,-0.08 -6.61,-0.25 -2.83,-0.17 -5.79,-0.34 -8.9,-0.51 -3.11,-0.17 -6.02,-0.25 -8.73,-0.25 -3.5,0 -6.78,0.03 -9.83,0.08 -3.05,0.06 -5.59,0.08 -7.63,0.08 -1.47,0 -2.66,-0.14 -3.56,-0.42 -0.91,-0.28 -1.36,-0.76 -1.36,-1.44 0,-0.79 0.65,-1.47 1.95,-2.03 1.3,-0.56 2.51,-1.02 3.65,-1.36 1.7,-0.56 3.36,-1.5 5,-2.8 1.64,-1.3 2.46,-3.02 2.46,-5.17 0,-0.9 -0.14,-1.81 -0.42,-2.71 -0.28,-0.9 -0.82,-1.86 -1.61,-2.88 l -17.63,-25.6 c -0.79,-1.24 -1.47,-1.89 -2.04,-1.95 -0.57,-0.06 -1.13,0.31 -1.7,1.1 l -22.89,29.5 c -0.45,0.68 -0.82,1.36 -1.1,2.03 -0.28,0.68 -0.42,1.3 -0.42,1.87 0,1.58 0.71,2.97 2.12,4.15 1.41,1.19 3.25,2.06 5.51,2.63 1.92,0.45 3.33,0.93 4.24,1.44 0.9,0.51 1.36,1.16 1.36,1.95 0,0.68 -0.45,1.16 -1.36,1.44 -0.91,0.28 -2.09,0.42 -3.56,0.42 -1.47,0 -3.59,-0.06 -6.36,-0.17 -2.77,-0.11 -5.68,-0.17 -8.73,-0.17 -3.84,0 -7.66,0.17 -11.44,0.51 -3.82,0.36 -7.13,0.53 -9.95,0.53 z"
   id="path8" />
		</g>
	</g>
</svg>
